Coordinates
version=1
nRows=18
nColumns=38
inDegrees=yes

Units are S.I. units (second, meters, Newtons, ...)
If the header above contains a line with 'inDegrees', this indicates whether rotational values are in degrees (yes) or radians (no).

endheader
time	pelvis_tilt	pelvis_list	pelvis_rotation	pelvis_tx	pelvis_ty	pelvis_tz	hip_flexion_r	hip_adduction_r	hip_rotation_r	knee_angle_r	ankle_angle_r	subtalar_angle_r	mtp_angle_r	hip_flexion_l	hip_adduction_l	hip_rotation_l	knee_angle_l	ankle_angle_l	subtalar_angle_l	mtp_angle_l	lumbar_extension	lumbar_bending	lumbar_rotation	arm_flex_r	arm_add_r	arm_rot_r	elbow_flex_r	pro_sup_r	wrist_flex_r	wrist_dev_r	arm_flex_l	arm_add_l	arm_rot_l	elbow_flex_l	pro_sup_l	wrist_flex_l	wrist_dev_l
      0.00000000	     -9.77743828	      7.05934028	     -3.94039569	     -5.93024235	      0.96387100	      0.17606740	    -25.74252975	     -8.04953680	    -13.10048131	    -11.38377495	    -20.51234335	     16.88171368	     50.57239015	     84.35659362	     -0.20482466	    -11.01848502	   -109.84034107	     -0.82843951	    -16.35552263	      9.47185104	     -3.48370246	    -12.28677048	     12.21362973	     47.90720252	    -28.76493207	     10.56430511	    105.90120438	     71.86370063	      0.00000000	      0.00000000	    -80.71289357	    -31.62984112	      4.23195043	     63.77121608	     68.60595286	      0.00000000	      0.00000000
      0.00400000	    -10.07236180	      7.35754951	     -4.05767539	     -5.89119816	      0.96290660	      0.17552475	    -28.13362768	     -8.36517822	    -12.17930789	     -8.93180009	    -29.00557597	     15.18707153	     30.29153957	     85.51935662	     -0.06406055	    -10.70963764	   -106.29531190	     -1.10919163	    -16.09759598	      8.72556428	     -2.62748129	    -12.62426719	     13.47941620	     50.20193744	    -30.03322983	      8.52660477	    100.64649600	    127.81728383	      0.00000000	      0.00000000	    -83.80877676	    -31.42862046	     -3.45716165	     57.04315151	    149.34062216	      0.00000000	      0.00000000
      0.00800000	    -10.52269767	      8.55644328	     -2.88509981	     -5.85204913	      0.96255532	      0.17327706	    -29.99599218	     -9.30436015	    -15.40645867	     -7.63749779	    -32.64057720	     14.34211706	     37.46903564	     86.32102221	      1.34080743	    -11.42204195	   -102.27107927	     -1.58070228	    -15.81661558	      9.60053496	     -1.89230383	    -13.95440837	     12.75876503	     52.04590846	    -30.24709094	      7.60539090	    102.26842884	    128.35037231	      0.00000000	      0.00000000	    -87.02022254	    -29.89850438	     -7.62449160	     58.07851296	    148.63113213	      0.00000000	      0.00000000
      0.01200000	     -9.83324553	      9.13411234	     -3.75265036	     -5.81229678	      0.96299401	      0.17189721	    -32.66656696	    -10.41215121	    -14.75855889	     -6.84776051	    -36.27379020	     11.95010610	     11.79188359	     85.81453909	      1.04621999	    -11.52385044	    -98.84769264	     -1.18623617	    -15.32179124	     -6.54445729	     -1.99529526	    -14.43603999	     14.12397836	     53.91296711	    -31.50407219	      7.61252247	    104.32333245	    129.35522195	      0.00000000	      0.00000000	    -89.14275605	    -28.26445634	    -11.02901063	     57.16172264	    148.95505064	      0.00000000	      0.00000000
      0.01600000	    -10.22079038	      9.22564231	     -2.89278145	     -5.77618390	      0.96400466	      0.17032948	    -33.23492225	    -10.36676791	    -15.63557762	     -8.23546034	    -35.21030582	      8.39630369	     28.35549242	     85.98644298	      2.16938884	    -10.94833274	    -93.60518436	      0.37460467	    -11.91448469	      7.80911887	     -1.93863642	    -14.49346332	     12.99957383	     56.12840376	    -31.17043806	      7.11143945	    105.43993960	    129.86451022	      0.00000000	      0.00000000	    -90.00021046	    -25.74594324	    -14.38503197	     57.52395454	    147.09803745	      0.00000000	      0.00000000
      0.02000000	     -9.75602894	      9.14200100	     -3.69557112	     -5.73845903	      0.96556529	      0.16995885	    -34.09880205	    -10.92938220	    -13.83632564	    -10.50060577	    -35.45390507	      5.97425591	     10.13284441	     84.95979097	      1.67055454	    -10.33523313	    -89.15150015	      0.87907484	    -10.16966706	      8.85084767	     -2.35712755	    -14.14020567	     13.77125851	     57.93625687	    -31.73840680	      7.71934807	    107.53831382	    130.33254993	      0.00000000	      0.00000000	    -90.00021046	    -24.65205043	    -15.85183142	     56.04243596	    147.34105613	      0.00000000	      0.00000000
      0.02400000	    -10.72467299	      7.59377616	     -3.33357132	     -5.70388495	      0.96594548	      0.17161683	    -32.91747244	     -9.23470343	    -11.29705907	    -13.94731934	    -34.08367100	      0.40218437	     29.07938853	     85.00719501	      1.52549284	     -8.10181058	    -84.23945036	      1.22307871	     -8.63022255	      8.66764182	     -1.93188259	    -12.54123973	     13.21845990	     59.43181404	    -31.32077386	      7.33559361	    109.36935536	    130.60693906	      0.00000000	      0.00000000	    -90.00021046	    -22.98061336	    -17.81526889	     56.16628502	    146.73823034	      0.00000000	      0.00000000
      0.02800000	    -10.38367741	      7.46825820	     -3.12133572	     -5.66693078	      0.96758888	      0.17255902	    -33.19934858	     -8.92947966	    -10.07812618	    -17.52402696	    -32.56442635	     -2.51735117	     29.07190193	     83.35713374	      1.50589197	     -7.76723566	    -79.22635880	      2.44090006	     -6.30810941	      9.07252742	     -2.52439802	    -12.69231233	     12.90089460	     59.85143402	    -31.42325478	      6.54425377	    111.43836576	    130.79785721	      0.00000000	      0.00000000	    -90.00021046	    -21.58513439	    -20.02602191	     55.06332464	    146.05204779	      0.00000000	      0.00000000
      0.03200000	    -10.37205395	      7.39491967	     -2.23650172	     -5.63012267	      0.96892909	      0.17135595	    -32.90648646	     -8.56002139	    -10.07283825	    -21.82277879	    -29.74699593	     -4.16516788	     28.83163395	     81.89224143	      2.54802399	     -7.09353198	    -73.80783168	      2.91553945	     -4.98867510	      9.29218855	     -2.87917669	    -12.62576676	     11.86633242	     60.00351779	    -31.48405312	      6.07706023	    113.44819777	    130.98470612	      0.00000000	      0.00000000	    -90.00021046	    -20.94244362	    -20.50158434	     54.80096954	    145.87397875	      0.00000000	      0.00000000
      0.03600000	    -10.72464649	      8.67394724	     -0.80688526	     -5.59303787	      0.97060491	      0.17058781	    -32.33712476	     -9.15057632	    -11.50148922	    -26.34562407	    -27.19517378	     -4.50426317	     23.36945465	     80.23134119	      4.41210521	     -7.57204110	    -67.69759278	      3.06012461	     -3.24909141	     11.71581404	     -2.97638604	    -14.46329081	     10.35239382	     58.65223095	    -31.43657270	      4.33198838	    115.84741939	    131.26263925	      0.00000000	      0.00000000	    -90.00021046	    -20.09918591	    -22.34928395	     54.85691084	    144.87956504	      0.00000000	      0.00000000
      0.04000000	    -10.50393362	      8.53455148	     -0.01588040	     -5.55624786	      0.97210189	      0.17093040	    -31.95284398	     -8.67909477	    -11.50787133	    -30.98243756	    -26.67717117	     -4.97354368	     20.13556559	     78.11765041	      5.09475023	     -6.94942516	    -62.20889550	      3.13364969	     -0.17384926	     14.41621949	     -3.68015646	    -14.62705660	      9.44945843	     57.60637033	    -31.67794768	      3.23740352	    117.90637754	    131.62223279	      0.00000000	      0.00000000	    -89.96884546	    -19.88655364	    -22.46671994	     55.85533295	    144.08893975	      0.00000000	      0.00000000
      0.04400000	    -10.38396122	      8.84662782	      0.55820588	     -5.51938006	      0.97419425	      0.17004794	    -31.20032849	     -9.16549911	    -12.06082565	    -36.21038932	    -24.94863817	     -3.45685633	     17.25943619	     75.81557278	      5.94432910	     -6.67385685	    -56.64292898	      3.16679374	      1.94661435	     16.01207728	     -4.26183814	    -15.03476377	      8.42105446	     56.26002831	    -31.54701072	      2.75112257	    119.79362878	    132.05289963	      0.00000000	      0.00000000	    -88.82425447	    -19.35916542	    -22.52077935	     55.62021613	    143.42844857	      0.00000000	      0.00000000
      0.04800000	    -10.22007751	      8.42097267	      1.13981740	     -5.48287046	      0.97606651	      0.17047884	    -30.41248370	     -8.43214520	    -11.44370313	    -40.91045330	    -26.93746439	     -3.68191458	     17.40897514	     73.51384625	      6.29211389	     -6.01536461	    -51.46654923	      2.67445374	      4.13871606	     16.30606739	     -4.98661282	    -14.79894080	      7.44994296	     54.50055347	    -31.69457112	      2.14850314	    121.67782825	    132.28679930	      0.00000000	      0.00000000	    -87.59217760	    -19.04992263	    -22.30101672	     55.46757963	    143.28276906	      0.00000000	      0.00000000
      0.05200000	     -9.57697758	      7.80803139	      1.32049470	     -5.44595047	      0.97848039	      0.17087465	    -29.80903770	     -7.99566273	    -10.91521967	    -46.10885906	    -27.48678943	     -2.68820526	     17.87137456	     70.69670033	      6.30607940	     -5.26585437	    -46.84540929	      2.71610955	      6.19050397	     17.45335186	     -6.07229436	    -14.29581486	      6.99576040	     52.16447783	    -31.89336092	      1.24842696	    123.51747948	    132.57262116	      0.00000000	      0.00000000	    -86.33017380	    -18.99349426	    -21.94490941	     56.11553673	    143.00923662	      0.00000000	      0.00000000
      0.05600000	     -9.23127487	      7.20376096	      1.60880727	     -5.40918000	      0.98039713	      0.17174361	    -28.89501808	     -7.26158623	    -10.22826385	    -51.07124487	    -28.76677471	     -2.17216589	     18.41177576	     68.27089936	      6.15804776	     -4.81536219	    -42.52076329	      1.76970389	      8.07725477	     17.89500661	     -6.83400702	    -13.78698141	      6.27503810	     49.74832933	    -31.73398670	      0.89880650	    124.84326031	    132.78679348	      0.00000000	      0.00000000	    -84.95657942	    -18.85972027	    -21.48117392	     56.73073767	    142.94523570	      0.00000000	      0.00000000
      0.06000000	     -8.70264102	      5.88799221	      1.41966507	     -5.37227076	      0.98216263	      0.17400351	    -27.92515482	     -5.92819870	     -8.95680312	    -55.99053800	    -30.22022455	     -2.37479970	     21.73171056	     65.90545412	      5.02000696	     -4.27538971	    -39.07377397	      1.12601546	     10.10896072	     20.91017994	     -7.61557974	    -12.64033671	      6.52578342	     46.50833445	    -31.82260348	      0.04808263	    126.16612453	    133.32896077	      0.00000000	      0.00000000	    -83.76321880	    -19.41590999	    -20.58708152	     58.38583950	    142.35326282	      0.00000000	      0.00000000
      0.06400000	     -8.31782099	      5.25738273	      1.50660954	     -5.33560565	      0.98392690	      0.17538642	    -26.73799409	     -5.20271722	     -8.23282737	    -61.28517243	    -29.87022349	     -1.19677183	     22.56488973	     63.58852581	      4.44745990	     -4.56388499	    -35.69528249	      0.31351268	     11.43236398	     21.53143137	     -8.36876082	    -12.06386822	      6.07037601	     43.51499107	    -31.32654309	     -0.24111184	    126.94011383	    133.59758054	      0.00000000	      0.00000000	    -81.97538354	    -19.74351625	    -19.80457379	     58.90282944	    142.20135058	      0.00000000	      0.00000000
      0.06800000	     -7.61844492	      4.54006222	      1.27375294	     -5.29905305	      0.98539426	      0.17685778	    -25.69610504	     -4.57830351	     -7.44315042	    -66.61070335	    -30.38107092	     -0.87489283	     23.63342485	     61.25750803	      3.57765275	     -5.05826076	    -33.26963317	     -0.21896748	     12.15990158	     22.22450412	     -9.33745365	    -11.28554264	      5.95515280	     40.69461924	    -30.90428972	     -0.10556127	    127.17107832	    133.89385834	      0.00000000	      0.00000000	    -80.34867459	    -20.33540681	    -18.47442812	     60.25115807	    142.13233576	      0.00000000	      0.00000000
